# xmcd CD database file
#
# Track frame offsets:
#	150
#	12376
#	27977
#	43926
#	56721
#	73456
#	88425
#	102375
#	121880
#	138039
#	151240
#	169963
#	181707
#	197900
#
# Disc length: 2775 seconds
#
# Revision: 0
# Processed by: cddbd v1.5.2PL0 Copyright (c) Steve Scherf et al.
# Submitted via: CDex 1.70beta2
#
DISCID=ca0ad50e
DTITLE=John Goldie - This Time and Place
DYEAR=2005
DGENRE=Jazz
TTITLE0=Just One Snag
TTITLE1=I Heard it On the Grapevine
TTITLE2=Drift To Me
TTITLE3=A Steady Hand
TTITLE4=Summertime
TTITLE5=You Could Dance with Me
TTITLE6=Swirl at Dawn
TTITLE7=Sweet Lorraine
TTITLE8=Moonlight In Vermont
TTITLE9=Don't Shave Much Anymore
TTITLE10=Paper Moon
TTITLE11=This Time and Place
TTITLE12=Smoke On The Water
TTITLE13=Dos Creme
EXTD=YEAR: 2005
EXTT0=
EXTT1=
EXTT2=
EXTT3=
EXTT4=
EXTT5=
EXTT6=
EXTT7=
EXTT8=
EXTT9=
EXTT10=
EXTT11=
EXTT12=
EXTT13=
PLAYORDER=
